# xmcd
#
# Track frame offsets:
#	150
#	20256
#	39069
#	61473
#	78615
#	96709
#	113968
#	133809
#	150878
#	169393
#	189297
#	203745
#
# Disc length: 2929 seconds
#
# Revision: 1
# Processed by: cddbd v1.4PL0 Copyright (c) Steve Scherf et al.
# Submitted via: audiograbber 1.82.02
#
DISCID=9a0b6f0c
DTITLE=Charlie Landsborough  - What Colour Is The Wind
DYEAR=1994
DGENRE=Country
TTITLE0=A Million Ways To Fall
TTITLE1=My Forever Friend
TTITLE2=Song Of The Ocean
TTITLE3=When You're Not A Dream
TTITLE4=What Colour Is The Wind
TTITLE5=Once Bitten Twice Shy
TTITLE6=Throw Me Away
TTITLE7=When The Counting's Done
TTITLE8=Funny Way To Say Goodbye
TTITLE9=A Dream Or Two
TTITLE10=Dance With Me
TTITLE11=White Lies And Windows
EXTD=
EXTT0=
EXTT1=
EXTT2=
EXTT3=
EXTT4=
EXTT5=
EXTT6=
EXTT7=
EXTT8=
EXTT9=
EXTT10=
EXTT11=
PLAYORDER=
